<svg xmlns="http://www.w3.org/2000/svg" width="225" height="225" viewBox="0 0 225 225">
<g>
<path d="M 102.62 86.46 C102.28,85.57 102.00,78.16 102.00,69.99 C102.00,59.36 101.97,55.06 104.06,53.36 C105.50,52.19 107.96,52.27 112.14,52.35 L 119.34 52.50 L 119.02 87.50 L 111.13 87.79 C104.61,88.03 103.14,87.80 102.62,86.46 ZM 113.50 84.44 C114.23,84.24 114.69,84.01 114.97,83.07 C114.85,84.22 114.69,84.94 114.50,85.14 C113.82,85.84 114.30,86.06 116.00,85.83 L 118.50 85.50 L 119.00 70.50 C119.31,61.15 119.12,55.11 118.50,54.47 C116.98,52.90 105.02,53.35 103.99,55.02 C102.84,56.87 103.79,58.22 105.55,57.23 C105.74,57.12 106.04,57.03 106.41,56.96 C106.18,57.70 106.00,63.63 106.00,70.58 C106.00,80.25 106.34,83.97 107.25,84.34 C108.98,85.04 111.14,85.07 113.50,84.44 ZM 91.37 79.25 C90.82,80.16 91.06,80.14 92.25,79.18 C93.00,78.57 93.35,77.64 93.34,76.81 C95.91,82.17 97.71,86.66 97.44,87.09 C96.93,87.93 91.94,88.09 87.33,87.79 C89.89,87.67 92.40,87.19 93.77,86.34 C95.62,85.19 95.84,84.57 94.98,82.97 C93.62,80.42 92.00,80.44 92.00,83.00 C92.00,83.36 91.97,83.66 91.89,83.91 C91.57,82.98 90.66,80.86 89.60,78.60 C83.60,65.86 81.66,62.00 82.22,58.55 C82.50,56.80 83.43,55.16 84.80,52.51 C86.23,49.76 87.31,47.16 87.20,46.75 C87.09,46.34 87.53,46.00 88.17,46.00 C88.81,46.00 89.05,45.72 88.71,45.38 C88.37,45.03 88.98,43.01 90.06,40.88 L 91.86 37.35 C92.49,37.58 92.58,37.94 92.36,38.50 C92.05,39.33 92.25,40.00 92.82,40.00 C94.02,40.00 95.40,38.73 96.23,37.16 C95.43,39.54 93.80,43.02 91.45,48.11 C87.51,56.61 86.10,60.74 86.59,62.27 C86.92,63.33 89.07,68.01 91.58,73.20 C91.39,73.32 91.12,73.53 90.75,73.82 C89.11,75.15 89.39,78.00 91.17,78.00 C91.69,78.00 91.78,78.56 91.37,79.25 ZM 66.00 83.00 C67.87,81.13 68.00,79.68 67.99,61.25 C67.98,50.39 67.70,40.49 67.37,39.25 C67.05,38.07 66.63,37.49 65.48,37.22 C68.23,37.17 69.99,36.56 70.60,35.47 L 70.79 41.28 C71.05,49.13 71.24,49.90 72.59,48.55 C73.43,47.72 74.27,46.24 74.47,45.27 C74.67,44.30 75.99,40.91 77.41,37.75 L 79.97 32.00 L 88.49 32.00 C89.07,32.00 89.62,32.00 90.14,32.00 C89.83,32.00 89.50,32.00 89.16,32.00 C81.83,32.00 81.25,32.16 80.22,34.42 C79.32,36.38 79.43,37.10 80.75,38.17 C81.10,38.46 81.37,38.66 81.56,38.78 L 77.19 48.37 C74.33,54.63 72.00,60.27 72.00,60.91 C72.00,61.08 72.08,61.41 72.24,61.86 C71.34,59.47 71.59,58.52 72.55,56.23 C74.65,51.21 74.42,49.33 71.75,49.42 C68.42,49.54 68.03,50.66 68.02,60.17 C68.00,70.19 68.46,71.96 70.90,71.32 C71.14,71.25 71.41,71.26 71.68,71.32 C71.29,72.32 70.92,75.51 70.79,79.25 L 70.50 87.50 L 67.63 87.83 C64.90,88.14 64.80,88.33 65.39,92.07 C65.81,94.68 66.61,97.52 67.69,100.35 C65.61,95.76 64.00,91.46 64.00,89.90 C64.00,88.98 65.12,87.49 66.50,86.59 C69.29,84.76 69.75,83.33 67.54,83.33 C66.74,83.33 66.34,83.74 66.64,84.23 C66.95,84.72 65.24,84.98 62.85,84.81 L 62.57 84.79 C63.84,84.50 65.12,83.88 66.00,83.00 ZM 135.00 84.02 C136.20,83.26 136.50,80.60 136.50,70.62 C136.50,63.77 136.27,57.95 136.00,57.68 C135.73,57.41 133.70,57.03 131.50,56.85 L 130.78 56.78 C131.46,56.83 132.22,56.90 133.00,57.00 C137.71,57.60 138.07,57.50 137.80,55.65 C137.53,53.86 136.63,53.61 129.75,53.35 L 122.00 53.06 L 122.00 52.23 L 124.70 51.72 C126.18,51.43 128.43,51.59 129.70,52.08 C131.04,52.58 133.01,52.57 134.40,52.04 C136.01,51.43 137.33,51.52 138.42,52.32 C139.84,53.35 140.01,55.75 139.78,70.51 L 139.50 87.50 L 122.00 88.08 L 122.00 70.50 C122.00,86.69 122.13,87.89 123.75,87.29 C124.71,86.94 125.79,86.21 126.15,85.68 C126.51,85.14 126.87,78.62 126.95,71.18 C127.02,63.83 127.27,57.51 127.49,57.02 L 127.22 69.92 C126.93,84.03 127.19,84.97 131.50,84.97 C132.60,84.97 134.18,84.54 135.00,84.02 ZM 146.57 49.57 C147.20,49.57 147.86,49.54 148.52,49.50 C150.71,49.36 153.01,49.65 153.63,50.14 C154.36,50.73 154.97,50.52 155.34,49.56 C155.98,47.88 154.88,46.96 150.50,45.50 C149.17,45.06 148.41,44.67 147.99,43.98 C148.35,44.48 148.97,44.66 150.00,44.78 C152.74,45.09 154.41,45.06 155.43,45.87 C157.25,47.30 157.00,51.34 157.00,64.47 C157.00,84.69 157.06,84.90 163.25,84.97 L 166.00 85.00 L 161.44 85.00 C158.93,85.00 157.11,84.62 157.40,84.17 C157.68,83.71 157.26,83.33 156.46,83.33 C154.10,83.33 154.79,85.58 157.53,86.83 C158.38,87.22 158.95,87.53 159.29,88.00 L 154.12 88.00 L 153.81 69.58 C153.64,59.45 153.27,50.95 153.00,50.69 C152.73,50.43 150.25,49.97 147.50,49.67 C147.18,49.64 146.87,49.60 146.57,49.57 ZM 177.73 98.55 C179.08,92.40 178.60,88.00 175.93,88.00 C175.44,88.00 175.09,88.07 174.85,88.25 C175.40,86.34 176.74,85.00 178.42,85.00 C179.88,85.00 180.03,85.69 179.47,89.75 C179.05,92.75 178.47,95.69 177.73,98.55 ZM 12.58 127.22 C13.94,129.78 20.35,129.51 31.11,126.42 C34.56,125.42 36.83,124.78 38.49,124.62 C36.12,125.08 32.05,126.14 27.69,127.46 C14.94,131.33 13.04,131.62 12.92,129.75 C12.89,129.12 12.73,128.03 12.58,127.22 ZM 205.37 85.00 C191.24,85.00 191.02,85.09 190.64,87.25 C190.18,89.78 189.78,92.01 189.42,93.99 C189.61,92.07 189.61,90.40 189.39,89.06 L 188.74 85.00 L 205.37 85.00 ZM 144.50 32.50 L 144.18 35.25 C144.01,36.76 143.45,38.00 142.94,38.00 C142.67,38.00 142.47,38.44 142.34,39.15 L 142.50 32.50 L 144.50 32.50 ZM 28.00 92.89 C28.00,93.50 28.67,94.00 29.50,94.00 C30.33,94.00 31.00,94.64 31.00,95.42 C31.00,96.20 31.55,97.02 32.23,97.24 C33.54,97.68 33.75,102.10 33.00,105.00 C32.95,101.19 30.63,94.00 29.42,94.00 C28.64,94.00 28.00,93.50 28.00,92.89 ZM 142.22 44.66 C142.38,46.74 142.73,48.64 143.22,49.18 C142.67,49.12 142.34,49.07 142.30,49.06 C142.22,49.04 142.19,47.26 142.22,44.66 ZM 42.18 125.58 C43.08,126.33 43.95,127.53 45.17,129.24 C46.45,131.04 47.18,132.45 47.18,133.94 C46.74,131.69 44.25,127.64 42.18,125.58 ZM 178.22 124.88 C175.60,129.30 172.93,132.22 166.59,138.50 C162.48,142.57 159.09,145.62 156.00,147.98 C159.07,145.63 162.44,142.59 166.55,138.50 C172.59,132.49 175.56,129.14 178.22,124.88 ZM 118.23 151.07 C125.84,150.30 133.49,148.29 140.00,145.24 C153.14,139.07 163.66,129.03 171.05,115.62 C161.97,132.38 146.81,144.76 128.50,149.31 C125.16,150.14 121.69,150.73 118.23,151.07 ZM 91.75 73.55 C92.01,74.09 92.28,74.64 92.55,75.19 C92.35,75.07 92.11,75.00 91.83,75.00 C91.31,75.00 91.22,74.44 91.63,73.75 C91.68,73.68 91.72,73.61 91.75,73.55 ZM 57.75 75.21 C57.41,70.02 57.21,62.36 57.16,55.41 C57.26,62.01 57.48,69.53 57.75,75.21 ZM 70.53 33.28 C70.21,32.83 69.39,32.50 68.20,32.28 L 70.50 32.50 L 70.53 33.28 ZM 83.66 122.01 C80.16,119.02 76.46,115.44 74.64,113.05 C74.38,112.72 74.11,112.33 73.83,111.91 C73.94,112.06 74.05,112.22 74.17,112.37 C76.12,115.01 80.02,118.86 83.66,122.01 ZM 83.66 84.09 C84.84,84.55 86.66,84.88 88.30,85.00 C88.23,85.00 88.15,85.00 88.07,85.00 C86.23,85.00 84.81,84.74 83.66,84.09 ZM 187.15 104.70 C186.36,107.69 185.52,110.00 184.34,112.68 C185.42,110.02 186.37,107.32 187.15,104.70 ZM 74.81 67.62 C76.08,70.25 76.88,72.88 76.60,73.60 C76.30,74.37 76.63,75.00 77.33,75.00 C76.63,75.00 76.29,74.40 76.57,73.67 C76.81,73.06 76.05,70.50 74.81,67.62 ZM 75.61 77.58 C75.92,76.76 75.23,74.90 74.31,73.37 C75.36,74.74 76.03,76.47 75.61,77.58 ZM 81.73 38.41 C81.70,38.36 81.67,38.31 81.63,38.25 C81.36,37.80 81.51,37.50 82.23,37.30 L 81.73 38.41 ZM 55.91 32.78 L 53.00 33.26 L 53.00 33.14 L 55.91 32.78 ZM 57.49 40.20 C57.54,39.74 57.59,39.39 57.65,39.17 C58.01,37.82 58.35,37.25 59.77,37.10 C58.21,37.31 57.92,38.00 57.49,40.20 ZM 59.02 84.54 L 58.50 84.50 L 58.44 83.80 C58.47,83.92 58.50,84.00 58.53,84.05 C58.65,84.24 58.82,84.40 59.02,84.54 ZM 32.36 106.66 C32.24,106.86 32.11,107.03 31.98,107.16 C31.77,107.37 31.27,107.72 30.55,108.15 C31.39,107.60 31.97,107.11 32.36,106.66 ZM 79.86 78.49 C80.34,79.81 81.07,81.28 81.76,82.34 C81.05,81.38 80.45,80.12 79.86,78.49 ZM 174.61 93.89 C174.35,96.20 173.60,99.39 172.46,103.00 C173.55,99.57 174.32,96.22 174.61,93.89 ZM 44.08 140.06 C42.82,141.58 41.14,143.37 38.99,145.57 C41.14,143.36 42.82,141.55 44.08,140.06 ZM 79.45 86.31 C79.45,86.30 79.44,86.30 79.43,86.29 C78.63,85.49 78.24,84.43 78.55,83.92 C78.24,84.41 78.65,85.48 79.45,86.31 ZM 159.54 93.25 C158.34,105.57 146.17,121.41 133.00,127.82 C146.17,121.41 158.33,105.57 159.54,93.25 Z" fill="rgba(12,206,81,1)"/>
<path d="M 107.75 191.92 C106.63,191.27 106.00,189.68 106.00,187.51 C106.00,185.64 105.50,183.81 104.90,183.44 C104.18,182.99 104.03,180.90 104.47,177.38 C104.92,173.80 104.79,172.00 104.07,172.00 C103.48,172.00 103.00,170.50 103.00,168.67 C103.00,165.37 102.96,165.34 96.46,164.14 C92.86,163.48 89.51,163.18 89.03,163.48 C88.54,163.79 85.62,168.73 82.53,174.48 C79.45,180.22 76.50,185.19 75.98,185.51 C74.58,186.38 66.08,182.37 65.37,180.51 C65.03,179.64 66.20,174.88 67.97,169.94 C72.31,157.81 72.43,156.04 69.16,153.15 C65.87,150.24 62.27,148.78 60.07,149.48 C59.16,149.77 54.61,152.92 49.96,156.49 C45.30,160.06 40.92,162.98 40.21,162.99 C38.40,163.00 34.00,159.98 34.00,158.71 C34.00,158.13 33.26,156.84 32.36,155.85 C30.82,154.14 31.20,153.55 38.99,145.57 C48.01,136.33 48.78,134.30 45.17,129.24 C41.18,123.63 40.94,123.59 31.11,126.42 C19.42,129.78 12.87,129.81 12.34,126.50 C12.25,125.95 11.86,123.81 11.47,121.74 L 10.77 117.98 L 20.64 113.31 C26.06,110.74 31.16,107.97 31.98,107.16 C33.77,105.37 33.96,97.82 32.23,97.24 C31.55,97.02 31.00,96.20 31.00,95.42 C31.00,94.64 30.33,94.00 29.50,94.00 C30.33,94.00 31.00,94.49 31.00,95.08 C31.00,95.68 31.54,95.99 32.20,95.77 C32.86,95.55 33.45,93.49 33.50,91.19 C33.60,87.22 33.44,86.99 30.27,86.39 C28.44,86.05 22.29,86.08 16.60,86.47 L 6.27 87.17 L 8.68 89.59 C10.72,91.63 11.72,91.91 15.05,91.38 C17.62,90.97 18.84,91.09 18.99,91.79 C18.84,91.08 17.58,90.97 14.87,91.41 C8.97,92.35 4.00,90.53 4.00,87.42 L 4.00 85.00 L 35.71 85.00 L 36.29 91.75 C38.03,112.05 48.74,131.31 65.89,144.98 C76.21,153.20 93.92,160.28 103.69,160.08 C105.45,160.04 107.16,160.46 107.50,161.01 C108.33,162.34 117.71,162.28 118.54,160.94 C118.90,160.36 120.40,160.15 121.88,160.47 C125.60,161.29 140.95,156.69 149.50,152.18 C154.46,149.57 159.45,145.58 166.59,138.50 C175.64,129.53 177.22,127.42 181.83,118.00 C186.73,107.98 187.27,106.12 190.64,87.25 C191.03,85.03 191.25,85.00 206.52,85.00 L 222.00 85.00 L 222.00 87.42 C222.00,90.06 218.00,91.93 213.24,91.82 C214.27,91.70 214.88,91.19 215.63,90.12 C216.44,88.96 217.88,87.99 218.81,87.98 C220.27,87.97 220.29,87.84 219.00,87.00 C216.75,85.54 193.29,85.72 192.38,87.20 C191.76,88.19 191.52,92.02 191.91,94.61 C191.96,94.94 192.71,94.94 193.58,94.61 C194.18,94.38 194.94,94.17 195.55,94.07 C194.15,94.69 193.74,95.93 192.94,99.80 C192.44,102.20 192.06,103.66 192.44,104.89 C193.12,107.08 196.19,108.51 205.25,113.09 C216.08,118.56 216.46,119.21 212.98,126.04 C210.55,130.81 209.40,130.93 198.75,127.55 C185.55,123.36 184.74,123.34 181.83,127.17 C179.52,130.23 178.16,131.87 178.11,133.55 C178.03,135.79 180.26,138.12 185.56,144.01 C190.20,149.17 194.00,153.75 194.00,154.19 C194.00,155.57 186.83,163.00 185.50,163.00 C183.29,163.00 179.66,160.68 171.77,154.23 L 164.11 147.96 L 158.69 151.42 L 153.26 154.89 L 154.52 159.70 C155.22,162.34 156.73,167.30 157.89,170.72 C159.05,174.14 160.00,178.24 160.00,179.84 C160.00,182.52 159.56,182.86 154.18,184.37 C147.47,186.25 146.67,186.34 147.45,185.09 C147.76,184.58 147.61,184.02 147.13,183.84 C146.64,183.65 143.91,178.85 141.07,173.17 C138.06,167.16 137.04,164.52 135.20,163.66 C133.50,162.87 131.11,163.58 125.85,164.55 C121.66,165.33 121.60,165.56 120.39,183.25 L 119.73 193.00 L 117.70 192.99 L 117.26 188.62 C116.99,185.85 117.39,183.14 118.37,181.25 C119.57,178.93 119.69,177.47 118.91,174.62 C118.13,171.80 118.23,170.52 119.34,168.92 C120.40,167.42 120.93,167.22 121.31,168.18 C121.75,169.26 122.09,166.72 121.98,163.25 C121.96,162.84 120.95,162.65 119.73,162.83 C111.64,164.01 108.97,164.05 107.02,163.01 C104.26,161.54 103.86,161.97 103.28,166.99 C102.95,169.82 103.17,170.98 104.00,170.78 C104.65,170.63 105.71,171.30 106.34,172.27 C107.26,173.66 107.13,174.69 105.75,177.11 C104.05,180.07 104.06,180.26 106.00,182.72 C107.10,184.12 108.00,186.08 108.00,187.08 C108.00,188.07 108.90,189.51 109.99,190.28 C111.09,191.05 111.69,191.98 111.33,192.34 C111.13,192.54 111.42,192.72 112.05,192.84 C110.13,192.66 108.42,192.31 107.75,191.92 ZM 103.00 136.29 C96.64,135.17 83.00,129.36 83.00,127.77 C83.00,127.31 82.11,126.61 81.03,126.21 C78.33,125.21 69.68,114.80 66.83,109.14 C65.55,106.59 64.12,104.22 63.66,103.89 C63.21,103.55 62.89,102.99 62.96,102.63 C63.29,100.96 61.68,95.00 60.89,95.00 C60.40,95.00 60.00,93.43 60.00,91.50 C60.00,88.17 59.83,88.00 56.50,88.00 L 53.00 88.00 L 53.00 60.63 C53.00,83.01 53.22,86.85 54.43,86.39 C55.63,85.93 55.77,82.13 55.28,62.07 C54.71,38.70 54.73,38.27 56.85,36.15 C59.08,33.92 64.40,33.21 65.50,35.00 C66.55,36.69 68.00,36.11 68.00,34.00 C68.00,32.35 67.34,32.00 64.25,32.01 C62.19,32.02 58.81,32.30 56.75,32.64 C63.58,31.51 70.02,31.89 70.62,33.45 C71.65,36.14 69.02,37.52 63.51,37.17 C58.74,36.86 58.22,37.04 57.65,39.17 C56.89,42.03 57.03,66.75 57.88,77.00 L 58.50 84.50 L 62.85 84.81 C65.24,84.98 66.95,84.72 66.64,84.23 C66.34,83.74 66.74,83.33 67.54,83.33 C69.75,83.33 69.29,84.76 66.50,86.59 C65.12,87.49 64.00,88.98 64.00,89.90 C64.00,93.13 70.91,108.16 74.64,113.05 C78.21,117.74 89.01,126.99 91.39,127.41 C93.87,127.85 100.58,130.32 101.70,131.21 C102.36,131.74 103.80,131.88 104.89,131.54 C105.98,131.19 107.77,131.46 108.86,132.14 C111.91,134.05 125.03,131.70 133.00,127.82 C146.17,121.41 158.34,105.57 159.54,93.24 C160.02,88.36 159.88,87.90 157.53,86.83 C154.79,85.58 154.10,83.33 156.46,83.33 C157.26,83.33 157.68,83.71 157.40,84.17 C157.11,84.62 158.93,85.00 161.44,85.00 L 166.00 85.00 L 166.12 67.25 C166.23,49.93 166.16,47.08 167.29,46.47 C167.60,46.31 167.99,46.30 168.50,46.23 C174.83,45.26 175.00,45.13 175.00,40.95 L 175.00 36.94 L 161.25 37.22 L 147.50 37.50 L 147.50 41.00 C147.50,44.00 147.93,44.64 150.50,45.50 C154.88,46.96 155.98,47.88 155.34,49.56 C154.97,50.52 154.36,50.73 153.63,50.14 C153.01,49.65 150.71,49.36 148.52,49.50 C146.33,49.64 144.03,49.56 143.40,49.32 C142.04,48.80 141.60,38.00 142.94,38.00 C143.45,38.00 144.01,36.76 144.18,35.25 L 144.50 32.50 L 147.08 32.50 C146.10,32.79 146.00,33.26 146.00,34.00 C146.00,36.11 147.45,36.69 148.50,35.00 C148.86,34.42 154.20,34.00 161.13,34.00 C173.42,34.00 176.14,34.77 175.25,38.01 C174.90,39.32 174.98,39.32 175.91,38.00 C176.49,37.17 176.98,35.49 176.98,34.25 C176.99,33.36 176.98,32.83 176.01,32.50 L 179.50 32.50 L 179.30 40.40 C179.20,44.74 178.75,48.64 178.30,49.08 C177.86,49.51 175.98,50.00 174.12,50.18 L 170.73 50.50 L 170.92 68.61 L 171.11 86.73 L 168.06 87.34 C165.74,87.80 164.99,88.50 164.96,90.22 C164.89,93.99 160.54,105.51 156.91,111.54 C150.24,122.62 135.84,132.98 123.00,135.92 C118.55,136.94 107.84,137.14 103.00,136.29 ZM 104.50 151.04 C101.20,150.66 95.35,149.34 91.50,148.10 C83.90,145.67 71.20,138.68 70.34,136.46 C70.05,135.70 68.94,134.80 67.87,134.46 C66.80,134.12 64.86,132.19 63.55,130.17 C62.24,128.15 60.01,125.28 58.59,123.79 C57.16,122.31 56.00,120.62 56.00,120.04 C56.00,119.47 55.47,119.00 54.83,119.00 C54.19,119.00 53.95,118.72 54.29,118.38 C54.63,118.04 54.25,117.10 53.44,116.30 C52.64,115.50 52.24,114.43 52.55,113.92 C52.86,113.41 52.57,113.00 51.89,113.00 C51.22,113.00 50.96,112.70 51.32,112.34 C51.69,111.98 51.52,111.13 50.95,110.44 C49.88,109.15 49.64,108.27 47.71,98.75 C47.07,95.59 46.20,93.00 45.77,93.00 C44.85,93.00 44.75,88.82 45.61,86.58 C45.94,85.71 47.23,85.00 48.46,85.00 C50.50,85.00 50.77,85.61 51.32,91.49 C53.11,110.70 66.63,130.62 83.52,138.93 C87.36,140.82 90.95,142.46 91.50,142.57 C92.05,142.68 94.53,143.35 97.00,144.06 C99.47,144.77 101.88,145.26 102.36,145.14 C102.83,145.03 103.73,145.34 104.36,145.84 C105.98,147.14 123.72,146.58 128.50,145.08 C136.56,142.54 148.67,135.93 154.08,131.11 C162.23,123.85 169.25,113.11 172.46,103.00 C174.15,97.68 174.96,93.28 174.64,91.25 C174.22,88.59 174.46,88.00 175.93,88.00 C180.43,88.00 178.70,100.50 172.51,112.84 C165.08,127.65 154.04,138.65 140.00,145.24 C129.48,150.17 115.96,152.38 104.50,151.04 ZM 146.38 179.79 C148.29,182.76 148.84,183.02 152.00,182.47 C158.27,181.37 158.47,180.49 154.96,169.52 C153.23,164.13 152.00,158.43 152.23,156.86 C152.47,155.23 152.19,154.00 151.58,153.99 C150.98,153.99 147.01,155.39 142.75,157.11 C134.96,160.24 133.38,162.07 136.86,163.93 C137.89,164.48 139.97,167.53 141.49,170.71 C143.01,173.90 145.21,177.98 146.38,179.79 ZM 14.71 127.34 C15.31,128.31 16.19,128.15 28.66,124.71 C36.86,122.46 38.05,122.34 39.92,123.66 C43.38,126.08 43.42,123.20 40.03,115.72 C38.36,112.05 37.00,108.41 37.00,107.64 C37.00,106.87 36.32,105.68 35.49,104.99 C34.23,103.94 33.82,104.21 32.97,106.66 C32.15,109.01 30.09,110.50 22.37,114.33 L 12.79 119.09 L 13.49 122.79 C13.87,124.82 14.42,126.87 14.71,127.34 ZM 203.30 127.05 C203.74,127.41 205.32,127.66 206.80,127.60 C208.82,127.53 209.93,126.65 211.18,124.14 C212.10,122.29 212.64,120.23 212.38,119.55 C212.12,118.88 207.84,116.37 202.87,113.99 C196.62,111.00 193.55,108.94 192.93,107.33 C192.45,106.05 191.79,105.00 191.47,105.00 C191.14,105.00 191.22,105.56 191.63,106.25 C192.23,107.24 192.07,107.25 190.88,106.28 C189.59,105.24 188.92,106.19 186.30,112.78 C183.12,120.79 182.27,122.85 182.88,123.45 C183.11,123.67 183.54,123.69 184.13,123.73 C185.28,123.82 185.77,123.44 185.37,122.78 C185.00,122.18 185.15,121.97 185.70,122.32 C186.26,122.66 188.68,123.19 191.09,123.49 C195.56,124.05 201.86,125.89 203.30,127.05 ZM 181.89 159.70 C183.32,160.37 184.70,160.93 184.95,160.95 C185.90,161.05 191.00,155.56 191.00,154.43 C191.00,153.78 188.05,150.15 184.43,146.37 C180.82,142.59 177.40,138.26 176.84,136.75 C176.27,135.24 175.44,134.00 175.00,134.00 C173.82,134.00 164.01,144.33 164.08,145.50 C164.15,146.75 178.35,158.07 181.89,159.70 ZM 36.07 158.37 C37.21,159.81 38.62,161.00 39.21,161.00 C39.79,161.00 44.24,158.04 49.09,154.43 C54.97,150.05 58.65,147.97 60.12,148.18 C64.13,148.76 63.11,146.47 56.27,139.51 C49.93,133.07 49.48,132.79 49.20,135.17 C49.01,136.70 45.98,140.71 41.45,145.39 C37.35,149.62 34.00,153.68 34.00,154.41 C34.00,155.13 34.93,156.92 36.07,158.37 ZM 70.23 181.96 C74.67,183.74 75.44,183.10 80.87,173.07 C84.52,166.33 86.68,163.32 87.61,163.68 C88.37,163.97 89.26,163.49 89.60,162.61 C89.93,161.73 90.72,161.30 91.35,161.65 C92.12,162.08 92.17,161.96 91.50,161.30 C90.49,160.30 75.15,153.98 73.75,153.99 C73.34,154.00 73.00,155.55 73.00,157.45 C73.00,159.34 71.60,164.75 69.90,169.46 C66.59,178.61 66.64,180.52 70.23,181.96 ZM 106.38 47.78 C102.35,44.69 102.16,44.24 103.05,40.26 C103.99,36.10 105.36,34.64 109.64,33.22 C114.06,31.76 118.65,34.59 119.54,39.35 C120.36,43.73 118.96,46.32 114.63,48.37 C110.23,50.46 109.83,50.43 106.38,47.78 ZM 79.51 86.36 C78.67,85.52 78.24,84.43 78.55,83.92 C78.86,83.41 78.61,83.00 78.00,83.00 C77.39,83.00 77.16,82.55 77.50,82.00 C77.84,81.45 77.61,81.00 77.00,81.00 C76.39,81.00 76.16,80.55 76.50,80.00 C76.84,79.45 76.66,79.00 76.09,79.00 C75.53,79.00 75.31,78.36 75.61,77.58 C76.45,75.39 72.98,70.77 70.90,71.32 C68.46,71.96 68.00,70.19 68.02,60.17 C68.03,50.66 68.42,49.54 71.75,49.42 C74.42,49.33 74.65,51.21 72.55,56.23 C71.18,59.52 71.26,60.04 74.09,66.02 C75.73,69.50 76.85,72.95 76.57,73.67 C76.29,74.40 76.63,75.00 77.33,75.00 C78.03,75.00 79.17,76.57 79.86,78.49 C81.66,83.47 83.59,85.00 88.07,85.00 C91.33,85.00 92.00,84.66 92.00,83.00 C92.00,80.44 93.62,80.42 94.98,82.97 C95.84,84.57 95.62,85.19 93.77,86.34 C90.63,88.29 81.45,88.31 79.51,86.36 ZM 114.50 85.14 C115.10,84.52 115.38,78.70 115.20,70.65 L 115.01 62.20 C115.10,64.03 115.16,66.48 115.21,69.75 L 115.43 82.50 L 115.75 71.25 C115.99,62.72 116.39,60.00 117.39,60.00 C118.26,60.00 118.56,59.16 118.26,57.58 C117.88,55.60 117.33,55.25 115.17,55.65 C112.05,56.21 110.98,57.00 113.33,57.00 C113.52,57.00 113.69,57.03 113.84,57.10 L 110.93 56.82 C108.74,56.61 106.32,56.80 105.55,57.23 C103.79,58.22 102.84,56.87 103.99,55.02 C105.02,53.35 116.98,52.90 118.50,54.47 C119.12,55.11 119.31,61.15 119.00,70.50 L 118.50 85.50 L 116.00 85.83 C114.30,86.06 113.82,85.84 114.50,85.14 ZM 107.40 46.23 C109.60,47.70 113.70,46.95 115.83,44.68 C117.71,42.68 117.87,41.92 116.96,39.31 C115.53,35.22 112.26,33.78 108.65,35.68 C104.10,38.06 103.45,43.60 107.40,46.23 ZM 126.35 48.11 C124.00,46.65 122.54,44.26 122.30,42.08 C122.52,42.54 122.92,43.07 123.50,43.64 C124.32,44.47 125.00,44.85 125.00,44.50 C125.00,44.15 125.71,44.56 126.57,45.43 C128.76,47.62 133.20,47.39 135.81,44.96 C137.03,43.82 137.65,43.34 137.82,42.74 C138.00,42.08 137.64,41.27 136.95,39.29 C135.50,35.12 131.71,33.49 128.46,35.62 C127.11,36.50 126.00,37.60 126.00,38.05 C126.00,38.50 125.10,39.15 124.00,39.50 C123.21,39.75 122.66,40.07 122.36,40.45 C122.52,39.69 122.86,38.99 123.42,38.44 C124.29,37.57 125.00,36.47 125.00,36.00 C125.00,35.01 130.70,32.00 132.58,32.00 C135.23,32.00 140.00,38.05 140.00,41.40 C140.00,47.91 132.18,51.75 126.35,48.11 ZM 92.36 38.50 C92.83,37.27 91.86,37.00 86.91,37.00 C82.35,37.00 81.07,37.31 81.63,38.25 C82.18,39.15 81.93,39.13 80.75,38.17 C79.43,37.10 79.32,36.38 80.22,34.42 C81.25,32.16 81.83,32.00 89.16,32.00 C96.79,32.00 97.00,32.06 97.00,34.43 C97.00,36.91 94.68,40.00 92.82,40.00 C92.25,40.00 92.05,39.33 92.36,38.50 ZM 91.23 35.00 C93.94,37.53 94.00,37.52 94.00,34.45 C94.00,31.98 93.82,31.91 88.33,32.20 C84.91,32.38 82.49,33.00 82.25,33.75 C81.99,34.51 82.74,34.99 84.17,34.98 C86.04,34.97 86.20,34.78 85.00,34.00 C83.83,33.25 84.12,33.03 86.29,33.02 C87.83,33.01 90.05,33.90 91.23,35.00 ZM 204.47 92.97 C204.20,92.99 203.92,93.00 203.62,93.00 C201.77,93.00 198.86,93.28 197.17,93.62 C197.07,93.64 196.97,93.66 196.88,93.68 C196.87,93.59 196.82,93.49 196.71,93.38 C196.37,93.04 196.69,92.17 197.42,91.44 C198.79,90.06 203.00,90.57 203.00,92.12 C203.00,92.52 203.62,92.86 204.47,92.97 ZM 91.37 79.25 C91.78,78.56 91.69,78.00 91.17,78.00 C89.39,78.00 89.11,75.15 90.75,73.82 C91.94,72.86 92.18,72.84 91.63,73.75 C91.22,74.44 91.31,75.00 91.83,75.00 C93.61,75.00 93.89,77.85 92.25,79.18 C91.06,80.14 90.82,80.16 91.37,79.25 ZM 162.19 89.79 C163.12,90.72 163.56,90.72 164.13,89.79 C165.07,88.27 164.30,87.00 162.44,87.00 C160.69,87.00 160.58,88.18 162.19,89.79 ZM 46.45 90.65 C47.13,92.34 47.28,92.29 48.12,90.10 C49.20,87.30 48.95,86.79 47.08,87.95 C46.21,88.49 45.98,89.48 46.45,90.65 ZM 70.07 54.25 C70.13,56.97 70.28,57.18 71.00,55.50 C72.19,52.74 72.19,51.00 71.00,51.00 C70.45,51.00 70.03,52.46 70.07,54.25 ZM 70.02 67.25 C70.01,68.76 70.45,70.00 71.00,70.00 C72.26,70.00 72.26,67.96 71.00,66.00 C70.24,64.83 70.03,65.11 70.02,67.25 ZM 174.73 44.92 C174.37,46.30 174.66,47.00 175.59,47.00 C177.19,47.00 177.36,46.11 176.12,44.17 C175.48,43.15 175.15,43.33 174.73,44.92 ZM 209.89 91.47 C208.10,91.28 207.00,91.46 207.00,91.99 C207.00,92.02 206.99,92.05 206.98,92.09 C206.99,92.04 207.00,92.00 207.00,91.95 C207.00,91.37 208.06,91.19 209.89,91.47 Z" fill="rgba(17,206,85,1)"/>
<path d="M 111.33 192.34 C111.69,191.98 111.09,191.05 109.99,190.28 C108.90,189.51 108.00,188.07 108.00,187.08 C108.00,186.08 107.10,184.12 106.00,182.72 C104.06,180.26 104.05,180.07 105.75,177.11 C107.13,174.69 107.26,173.66 106.34,172.27 C105.71,171.30 104.65,170.63 104.00,170.78 C103.17,170.98 102.95,169.82 103.28,166.99 C103.86,161.97 104.26,161.54 107.02,163.01 C108.97,164.05 111.64,164.01 119.73,162.83 C120.95,162.65 121.96,162.84 121.98,163.25 C122.09,166.72 121.75,169.26 121.31,168.18 C120.93,167.22 120.40,167.42 119.34,168.92 C118.23,170.52 118.13,171.80 118.91,174.62 C119.69,177.47 119.57,178.93 118.37,181.25 C117.39,183.14 116.99,185.85 117.26,188.62 L 117.70 193.00 L 114.18 193.00 C112.25,193.00 110.96,192.70 111.33,192.34 ZM 70.23 181.96 C66.64,180.52 66.59,178.61 69.90,169.46 C71.60,164.75 73.00,159.34 73.00,157.45 C73.00,155.55 73.34,154.00 73.75,153.99 C75.15,153.98 90.49,160.30 91.50,161.30 C92.17,161.96 92.12,162.08 91.35,161.65 C90.72,161.30 89.93,161.73 89.60,162.61 C89.26,163.49 88.37,163.97 87.61,163.68 C86.68,163.32 84.52,166.33 80.87,173.07 C75.44,183.10 74.67,183.74 70.23,181.96 ZM 146.38 179.79 C145.21,177.98 143.01,173.90 141.49,170.71 C139.97,167.53 137.89,164.48 136.86,163.93 C133.38,162.07 134.96,160.24 142.75,157.11 C147.01,155.39 150.98,153.99 151.58,153.99 C152.19,154.00 152.47,155.23 152.23,156.86 C152.00,158.43 153.23,164.13 154.96,169.52 C158.47,180.49 158.27,181.37 152.00,182.47 C148.84,183.02 148.29,182.76 146.38,179.79 ZM 36.07 158.37 C34.93,156.92 34.00,155.13 34.00,154.41 C34.00,153.68 37.35,149.62 41.45,145.39 C45.98,140.71 49.01,136.70 49.20,135.17 C49.48,132.79 49.93,133.07 56.27,139.51 C63.11,146.47 64.13,148.76 60.12,148.18 C58.65,147.97 54.97,150.05 49.09,154.43 C44.24,158.04 39.79,161.00 39.21,161.00 C38.62,161.00 37.21,159.81 36.07,158.37 ZM 181.89 159.70 C178.35,158.07 164.15,146.75 164.08,145.50 C164.01,144.33 173.82,134.00 175.00,134.00 C175.44,134.00 176.27,135.24 176.84,136.75 C177.40,138.26 180.82,142.59 184.43,146.37 C188.05,150.15 191.00,153.78 191.00,154.43 C191.00,155.56 185.90,161.05 184.95,160.95 C184.70,160.93 183.32,160.37 181.89,159.70 ZM 14.71 127.34 C14.42,126.87 13.87,124.82 13.49,122.79 L 12.79 119.09 L 22.37 114.33 C30.09,110.50 32.15,109.01 32.97,106.66 C33.82,104.21 34.23,103.94 35.49,104.99 C36.32,105.68 37.00,106.87 37.00,107.64 C37.00,108.41 38.36,112.05 40.03,115.72 C43.42,123.20 43.38,126.08 39.92,123.66 C38.05,122.34 36.86,122.46 28.66,124.71 C16.19,128.15 15.31,128.31 14.71,127.34 ZM 203.30 127.05 C201.86,125.89 195.56,124.05 191.09,123.49 C188.68,123.19 186.26,122.66 185.70,122.32 C185.15,121.97 185.00,122.18 185.37,122.78 C185.77,123.44 185.28,123.82 184.13,123.73 C181.97,123.57 181.92,123.80 186.30,112.78 C188.92,106.19 189.59,105.24 190.88,106.28 C192.07,107.25 192.23,107.24 191.63,106.25 C191.22,105.56 191.14,105.00 191.47,105.00 C191.79,105.00 192.45,106.05 192.93,107.33 C193.55,108.94 196.62,111.00 202.87,113.99 C207.84,116.37 212.12,118.88 212.38,119.55 C212.64,120.23 212.10,122.29 211.18,124.14 C209.93,126.65 208.82,127.53 206.80,127.60 C205.32,127.66 203.74,127.41 203.30,127.05 ZM 31.00 95.08 C31.00,94.49 30.33,94.00 29.50,94.00 C28.67,94.00 28.00,93.50 28.00,92.89 C28.00,92.13 26.54,91.99 23.50,92.45 C20.31,92.93 19.00,92.78 19.00,91.93 C19.00,91.11 17.79,90.94 15.05,91.38 C11.72,91.91 10.72,91.63 8.68,89.59 L 6.27 87.17 L 16.60 86.47 C22.29,86.08 28.44,86.05 30.27,86.39 C33.44,86.99 33.60,87.22 33.50,91.19 C33.45,93.49 32.86,95.55 32.20,95.77 C31.54,95.99 31.00,95.68 31.00,95.08 ZM 191.91 94.61 C191.52,92.02 191.76,88.19 192.38,87.20 C193.29,85.72 216.75,85.54 219.00,87.00 C220.29,87.84 220.27,87.97 218.81,87.98 C217.88,87.99 216.44,88.96 215.63,90.12 C214.39,91.88 213.52,92.13 210.57,91.58 C208.33,91.16 207.00,91.30 207.00,91.95 C207.00,92.53 206.10,93.00 205.00,93.00 C203.90,93.00 203.00,92.60 203.00,92.12 C203.00,90.57 198.79,90.06 197.42,91.44 C196.69,92.17 196.37,93.04 196.71,93.38 C197.05,93.72 196.85,94.00 196.25,94.00 C195.65,94.00 194.45,94.27 193.58,94.61 C192.71,94.94 191.96,94.94 191.91,94.61 ZM 46.45 90.65 C45.98,89.48 46.21,88.49 47.08,87.95 C48.95,86.79 49.20,87.30 48.12,90.10 C47.28,92.29 47.13,92.34 46.45,90.65 ZM 162.19 89.79 C160.58,88.18 160.69,87.00 162.44,87.00 C164.30,87.00 165.07,88.27 164.13,89.79 C163.56,90.72 163.12,90.72 162.19,89.79 ZM 53.00 60.10 L 53.00 33.26 L 56.75 32.64 C58.81,32.30 62.19,32.02 64.25,32.01 C67.34,32.00 68.00,32.35 68.00,34.00 C68.00,36.11 66.55,36.69 65.50,35.00 C64.40,33.21 59.08,33.92 56.85,36.15 C54.73,38.27 54.71,38.70 55.28,62.07 C55.77,82.13 55.63,85.93 54.43,86.39 C53.21,86.86 53.00,82.94 53.00,60.10 ZM 122.00 70.00 C122.00,55.36 122.20,53.14 123.50,53.64 C124.75,54.12 125.00,56.89 125.00,70.00 C125.00,83.11 124.75,85.88 123.50,86.36 C122.20,86.86 122.00,84.64 122.00,70.00 ZM 115.21 69.75 C115.03,58.60 114.79,57.00 113.33,57.00 C110.98,57.00 112.05,56.21 115.17,55.65 C117.33,55.25 117.88,55.60 118.26,57.58 C118.56,59.16 118.26,60.00 117.39,60.00 C116.39,60.00 115.99,62.72 115.75,71.25 L 115.43 82.50 L 115.21 69.75 ZM 70.02 67.25 C70.03,65.11 70.24,64.83 71.00,66.00 C72.26,67.96 72.26,70.00 71.00,70.00 C70.45,70.00 70.01,68.76 70.02,67.25 ZM 70.07 54.25 C70.03,52.46 70.45,51.00 71.00,51.00 C72.19,51.00 72.19,52.74 71.00,55.50 C70.28,57.18 70.13,56.97 70.07,54.25 ZM 107.40 46.23 C103.45,43.60 104.10,38.06 108.65,35.68 C112.26,33.78 115.53,35.22 116.96,39.31 C117.87,41.92 117.71,42.68 115.83,44.68 C113.70,46.95 109.60,47.70 107.40,46.23 ZM 126.57 45.43 C125.71,44.56 125.00,44.15 125.00,44.50 C125.00,44.85 124.32,44.47 123.50,43.64 C121.46,41.60 121.62,40.26 124.00,39.50 C125.10,39.15 126.00,38.50 126.00,38.05 C126.00,37.60 127.11,36.50 128.46,35.62 C131.71,33.49 135.50,35.12 136.95,39.29 C138.27,43.08 138.37,42.58 135.81,44.96 C133.20,47.39 128.76,47.62 126.57,45.43 ZM 174.73 44.92 C175.15,43.33 175.48,43.15 176.12,44.17 C177.36,46.11 177.19,47.00 175.59,47.00 C174.66,47.00 174.37,46.30 174.73,44.92 ZM 175.25 38.01 C176.14,34.77 173.42,34.00 161.13,34.00 C154.20,34.00 148.86,34.42 148.50,35.00 C147.45,36.69 146.00,36.11 146.00,34.00 C146.00,32.09 146.67,32.00 161.50,32.00 C176.91,32.00 177.00,32.01 176.98,34.25 C176.98,35.49 176.49,37.17 175.91,38.00 C174.98,39.32 174.90,39.32 175.25,38.01 ZM 91.23 35.00 C90.05,33.90 87.83,33.01 86.29,33.02 C84.12,33.03 83.83,33.25 85.00,34.00 C86.20,34.78 86.04,34.97 84.17,34.98 C82.74,34.99 81.99,34.51 82.25,33.75 C82.49,33.00 84.91,32.38 88.33,32.20 C93.82,31.91 94.00,31.98 94.00,34.45 C94.00,37.52 93.94,37.53 91.23,35.00 Z" fill="rgba(22,207,88,1)"/>
</g>
</svg>