<svg xmlns="http://www.w3.org/2000/svg" width="1017" height="1031" viewBox="0 0 1017 1031">
<g>
<path d="M 13.67 1004.33 C13.30,1003.97 13.00,1002.42 13.00,1000.91 C13.00,998.41 14.05,997.60 23.89,992.42 C60.87,972.98 86.53,944.09 111.73,893.50 C115.01,886.90 120.98,874.30 125.00,865.50 C138.22,836.51 185.03,739.84 194.49,722.00 C239.21,637.64 281.07,590.52 336.27,562.41 C362.88,548.86 387.78,541.13 421.50,535.96 C439.04,533.27 485.91,532.11 504.54,533.90 C523.05,535.69 554.00,541.34 554.00,542.94 C554.00,543.28 546.91,544.35 538.25,545.32 C504.96,549.04 479.30,556.41 452.50,569.95 C392.50,600.25 342.18,658.72 307.50,738.42 C296.13,764.57 239.59,905.92 235.32,918.90 C225.17,949.71 226.21,965.67 239.27,979.63 C244.11,984.81 247.18,987.01 254.42,990.50 C259.41,992.90 266.09,995.61 269.25,996.51 C274.81,998.09 275.00,998.25 275.00,1001.57 L 275.00 1005.00 L 144.67 1005.00 C72.98,1005.00 14.03,1004.70 13.67,1004.33 ZM 711.39 1003.58 C709.82,999.47 711.38,997.87 720.37,994.40 C748.02,983.74 758.03,973.18 757.98,954.71 C757.94,935.88 751.04,915.86 707.25,807.50 C693.47,773.40 659.38,689.03 631.50,620.00 C603.62,550.97 576.62,484.15 571.51,471.50 C500.99,297.22 455.00,182.77 455.00,181.59 C455.00,180.78 465.37,158.60 478.05,132.31 C490.73,106.01 508.84,68.41 518.29,48.75 C527.75,29.08 535.88,13.13 536.36,13.29 C536.84,13.45 611.87,196.03 703.09,419.04 C794.31,642.04 872.18,832.38 876.13,842.00 C896.52,891.71 912.83,922.32 931.76,946.44 C945.46,963.88 966.98,982.54 986.30,993.72 C993.66,997.98 994.09,998.42 993.80,1001.37 L 993.50 1004.50 L 852.72 1004.75 C731.37,1004.97 711.86,1004.81 711.39,1003.58 Z" fill="rgba(228,115,45,1)"/>
</g>
</svg>