<?xml version="1.0" encoding="UTF-8" standalone="no"?>
<svg
   version="1.1"
   width="5100pt"
   height="1199.9999pt"
   id="svg1"
   viewBox="0 0 5100 1199.9999"
   sodipodi:docname="aricent-group-seeklogo.cdr"
   xmlns:inkscape="http://www.inkscape.org/namespaces/inkscape"
   xmlns:sodipodi="http://sodipodi.sourceforge.net/DTD/sodipodi-0.dtd"
   xmlns="http://www.w3.org/2000/svg"
   xmlns:svg="http://www.w3.org/2000/svg">
  <defs
     id="defs1" />
  <sodipodi:namedview
     id="namedview1"
     pagecolor="#ffffff"
     bordercolor="#000000"
     borderopacity="0.25"
     inkscape:showpageshadow="2"
     inkscape:pageopacity="0.0"
     inkscape:pagecheckerboard="0"
     inkscape:deskcolor="#d1d1d1"
     inkscape:document-units="pt" />
  <path
     d="m 1408.5897,173.6701 c 7.9889,17.89 14.9386,36.2596 22.5207,54.3407 72.9678,178.2984 145.8975,356.6208 218.848,534.9294 13.4294,32.4009 25.34,65.8899 45.201,95.08 13.5793,20.0197 31.6987,37.2107 53.3987,48.1396 -0.031,1.7802 -0.038,3.5796 -0.031,5.3805 -70.0268,0.009 -140.0604,0.0201 -210.0801,0 -0.018,-1.8009 -0.01,-3.5796 0.014,-5.3601 8.8475,-3.2604 18.0079,-6.3907 25.5589,-12.23 5.8683,-4.4504 9.5082,-11.6706 9.3311,-19.0704 -0.1219,-12.1297 -4.3631,-23.6787 -8.3333,-34.9807 -13.089,-35.3905 -27.8085,-70.1379 -41.7663,-105.1775 -58.5615,-144.8615 -116.9835,-289.7819 -175.5796,-434.6223 20.2365,-42.1804 40.6678,-84.2596 60.9182,-126.4292 z m 776.7777,64.8397 c 17.0626,-1.62 34.5912,5.4303 45.7611,18.4116 11.2289,12.63 16.5098,30.3114 13.951,47.0194 -2.649,18.7208 -14.6812,36.0998 -31.8098,44.3389 -16.3707,8.0723 -36.51,6.5393 -52.3106,-2.1693 -14.2328,-7.7318 -24.7002,-21.7698 -28.5316,-37.4488 -3.6606,-14.2118 -2.4298,-30.1096 5.6319,-42.6424 10.0681,-16.1691 28.5489,-26.0178 47.308,-27.5094 z m 1750.2165,128.9914 c 1.8425,-1.7904 4.589,-0.8518 6.9531,-1.0222 0,37.0732 0,74.1535 0,111.2196 27.8464,0.021 55.6583,-0.007 83.505,0.0139 9.9079,0.0972 19.8853,-0.5318 29.6892,-2.1206 7.2658,-1.2725 14.601,-3.0628 21.0674,-6.7618 2.6073,-1.7903 5.91,-0.9907 8.8997,-1.0987 -13.5582,26.2372 -26.9774,52.5473 -40.5009,78.8086 -34.2434,0.0102 -68.4519,0 -102.6604,0.0102 0,71.4906 0,142.9911 0,214.4885 -0.1043,19.5412 1.3904,39.7222 9.6645,57.7094 6.1185,13.5828 16.861,25.0725 30.1759,31.7926 11.0205,5.7101 23.3272,8.5198 35.6338,9.7095 7.9265,0.5797 15.9225,1.2696 23.8487,-0.01 7.8916,-1.1106 15.5052,-3.9203 22.2843,-8.1108 2.0163,-1.4601 4.6584,-0.7892 7.0571,-0.9006 -14.8096,22.8118 -29.8976,45.4317 -44.8464,68.1812 -1.1474,2.4608 -4.1717,2.0696 -6.362,2.5897 -22.18,2.99 -45.0204,2.99 -66.9569,-1.8592 -20.0594,-4.4107 -39.2148,-13.7401 -54.1636,-27.9003 -22.2497,-20.7298 -34.2433,-50.1508 -39.3885,-79.6314 -4.9714,-26.2474 -3.6156,-53.0476 -3.7894,-79.5977 0,-54 0,-108.0003 0,-162.0003 -0.1043,-10.5999 0.6256,-21.3908 -2.086,-31.7611 -3.4764,-14.7892 -13.2106,-27.8501 -26.2474,-35.5785 -10.9508,-6.4522 -23.6401,-10.0227 -36.364,-9.9218 -0.035,-1.8496 -0.035,-3.6884 -0.035,-5.5276 48.1841,-40.2715 96.4029,-80.4804 144.6216,-120.7207 z m 236.8179,87.0301 c 10.4641,-0.6919 21.2412,1.3592 30.28,6.7584 12.3415,7.3108 22.0411,19.5622 25.0308,33.7289 2.7465,13.0507 1.0777,27.2902 -5.91,38.7904 -7.2312,11.9208 -19.0511,21.3004 -32.7138,24.5021 -12.863,2.9412 -26.9078,1.5299 -38.4151,-5.0094 -14.1145,-8.1595 -24.7524,-22.792 -26.456,-39.2009 -2.0163,-14.7506 2.1903,-30.4608 12.3069,-41.5613 8.9345,-10.4677 22.0756,-17.3301 35.8772,-18.0082 z m -4.9714,8.187 c -19.7464,3.7027 -35.7035,22.1522 -36.0164,42.3125 -1.0429,16.0611 7.5093,31.9799 21.0677,40.508 16.374,10.6205 39.9098,8.632 54.0243,-5.0202 14.5664,-12.776 18.8425,-35.2063 10.6033,-52.6269 -3.3721,-7.1617 -8.7607,-13.2525 -15.088,-17.9317 -9.873,-7.1475 -22.7361,-9.5882 -34.5909,-7.2417 z m -2203.48,9.2512 c 21.45,-8.6808 44.937,-11.5699 67.9583,-10.461 10.4502,0.671 20.9387,2.2632 30.8294,5.8303 0.069,26.6298 -0.01,53.2701 0.042,79.9033 -16.9305,-7.6621 -35.3106,-12.0217 -53.8296,-13.2939 -20.3896,-1.1299 -41.4814,1.7033 -59.7433,11.2637 -15.0879,7.8497 -27.5094,20.4973 -35.3976,35.5261 -10.3913,19.6214 -13.8504,42.2217 -13.5097,64.2245 -0.031,60.3377 0.017,120.6686 -0.021,181.0063 0.2188,17.1913 0.9212,34.9711 7.8185,50.9913 5.392,12.7803 15.9015,22.9397 28.201,29.1306 -0.021,1.8087 -0.042,3.619 0,5.4496 -53.0198,0.03 -106.0395,0.009 -159.0593,0.009 -0.031,-1.8102 -0.042,-3.619 -0.021,-5.4099 12.2301,-6.4899 23.1707,-16.2091 28.8615,-29.0492 4.4708,-9.7109 6.1291,-20.431 6.88,-31.0101 1.0882,-17.3617 0.108,-34.7511 0.2678,-52.13 0.011,-69.6512 -0.01,-139.3093 0,-208.9607 -0.1182,-11.6496 0.5806,-23.2889 0.063,-34.9317 -0.3722,-12.1467 -1.262,-24.9681 -7.6207,-35.6686 -5.9099,-10.2869 -16.6314,-16.5586 -27.4119,-20.6782 -0.049,-1.8598 -0.07,-3.7199 -0.08,-5.5692 36.6004,-6.6609 73.2215,-13.2316 109.8218,-19.8924 4.0397,-0.7892 8.1769,-0.5389 12.2998,-0.5284 -0.052,21.6584 0.069,43.3202 -0.063,64.9789 12.0427,-27.6798 35.801,-49.5887 63.7135,-60.7306 z m 574.9889,-6.2578 c 27.4294,-4.4498 55.4292,-5.7118 83.1089,-3.0316 31.7194,3.0005 63.3308,8.3993 93.8509,17.7094 2.9378,30.7007 5.559,61.4398 8.2984,92.1614 -12.4701,-12.1399 -26.4489,-22.8092 -41.9785,-30.7216 -38.3315,-19.7396 -83.6788,-23.091 -125.4697,-14.1876 -29.251,6.3481 -57.1322,20.4278 -78.2798,41.7874 -21.5924,21.1995 -35.8495,49.1922 -42.5209,78.5719 -6.4593,28.8581 -6.4904,59.1279 -0.2398,88.0279 6.6504,30.4713 21.4986,59.5103 44.1581,81.1724 27.8295,27.398 66.4427,41.9488 105.0316,44.5291 38.8182,3.1505 78.9197,-5.6996 111.6785,-27.1017 8.3401,-5.5483 16.4611,-11.6496 23.1812,-19.1274 2.0718,-0.0521 4.1612,-0.0697 6.2818,-0.0697 -5.9099,30.2698 -11.8408,60.529 -17.7823,90.7988 -22.0303,6.7998 -44.7596,11.1396 -67.579,14.3204 -46.512,6.5996 -94.5916,3.9095 -139.6608,-9.6407 -43.0701,-12.8902 -83.1679,-37.2294 -112.1476,-71.8801 -18.6619,-22.1904 -32.5505,-48.3301 -40.7721,-76.121 -8.6114,-28.6982 -11.2814,-58.9785 -9.2997,-88.8066 1.9191,-28.6636 8.6704,-57.1326 21.0186,-83.1226 12.161,-25.8582 29.9013,-48.9977 51.4208,-67.7707 35.7418,-31.1873 81.1619,-49.8804 127.7014,-57.4974 z m 432.9575,-2.6421 c 38.5123,-4.7279 78.7005,-0.5806 114.1118,15.891 32.7172,14.9697 60.5707,40.0283 79.4795,70.6002 23.7617,37.9877 33.7807,83.4809 32.5015,127.997 -106.6618,-0.0172 -213.3134,0.0139 -319.9717,-0.0172 -0.1494,40.5878 7.2312,82.5698 29.0112,117.439 16.2283,26.3518 41.6588,46.7793 70.8681,57.0422 21.1195,7.628 43.7411,10.5681 66.1294,10.2175 47.1515,-0.2387 95.1792,-17.64 128.3621,-51.7791 2.0583,-0.0207 4.1579,-0.0102 6.289,0.0105 -8.0898,29.9395 -15.9812,59.9289 -24.2311,89.82 -17.0102,6.999 -34.511,12.9294 -52.5504,16.619 -26.5671,5.6508 -53.8367,7.6104 -80.9603,7.0007 -39.4892,-1.0009 -79.1178,-9.5196 -114.4979,-27.3801 -32.0286,-16.0203 -60.2195,-39.8708 -80.7202,-69.2995 -22.5589,-32.0808 -35.6896,-70.3604 -39.3086,-109.3212 -3.5495,-40.2996 0.9491,-81.5686 14.7994,-119.6779 12.6612,-34.8205 33.9687,-66.7902 62.7296,-90.3504 30.4608,-25.3295 68.7716,-40.2888 107.9586,-44.8117 z m -35.5992,76.1592 c -29.5084,17.6604 -49.5572,49.1922 -54.8799,82.98 75.4606,0.0315 150.9282,0.0315 226.3989,-0.007 -2.4786,-17.2607 -7.6796,-34.3094 -16.6801,-49.3313 -9.2682,-15.6198 -22.8371,-28.7819 -39.0583,-37.0522 -17.4901,-9.1885 -37.4417,-12.7066 -57.0419,-12.8492 -20.5671,-0.007 -41.1789,5.4998 -58.7387,16.2595 z m 557.252,-63.7483 c 22.3188,-9.8802 47.1061,-13.5513 71.3721,-11.6008 31.9141,1.912 63.724,12.3797 89.0325,32.2512 27.2557,21.0501 45.7852,51.9281 55.137,84.8191 6.501,22.3991 8.9694,45.7923 8.8999,69.0707 -0.035,56.3295 0.069,112.6692 -0.035,168.9987 0,20.24 -0.5216,41.6611 8.8302,60.2113 5.8753,11.6189 15.9919,20.5194 27.2208,26.8098 -0.07,1.8195 -0.035,3.6598 -0.035,5.5091 -52.9815,0.0108 -105.9633,-0.0201 -158.9794,0.0108 -0.035,-1.8397 -0.035,-3.6797 0,-5.5009 13.4887,-7.5694 24.6135,-19.6396 29.689,-34.3888 7.5787,-21.7001 6.084,-45.0692 6.3272,-67.68 0,-44.6695 0,-89.3387 0,-134.0116 0.1737,-21.1578 -1.7382,-42.4372 -7.0572,-62.9694 -4.9019,-18.9989 -12.8979,-37.4485 -25.0307,-52.9988 -9.3518,-12.06 -21.3109,-22.0722 -34.869,-29.0704 -19.364,-9.9394 -41.4746,-13.5618 -63.0635,-12.8698 -29.7828,1.3802 -59.3331,11.2603 -83.5118,28.7608 9.0006,-14.0694 20.4103,-26.5115 32.87,-37.6015 12.9013,-11.3403 27.4538,-20.8695 43.2023,-27.7495 z m -1286.5618,-4.5298 c 8.9518,-1.4706 17.8413,-3.9702 27.0017,-3.24 0.017,112.7597 0.01,225.5193 0.01,338.279 0.028,17.2709 -0.4623,34.6813 2.3502,51.7901 2.037,12.31 6.5183,24.5608 14.9278,33.9797 5.2705,6.031 11.8687,10.7612 18.9989,14.3802 -0.017,1.7909 -0.028,3.581 0.021,5.3898 -53.0892,0.0609 -106.1892,-0.01 -159.2785,0.0309 -0.042,-1.8102 -0.063,-3.6204 -0.042,-5.4099 12.5396,-6.5809 23.6817,-16.6802 29.2719,-29.9101 7.3389,-17.0402 6.9877,-36.0215 6.9809,-54.2208 -0.021,-89.6689 0.017,-179.3307 -0.014,-268.9996 -0.417,-13.0992 -0.9074,-26.9913 -7.7176,-38.5994 -5.9415,-10.311 -16.6593,-16.6315 -27.4887,-20.7406 -0.031,-1.86 -0.031,-3.7094 -0.01,-5.559 31.6601,-5.7291 63.3206,-11.4409 94.9878,-17.1703 z m 1070.0186,17.1598 c 36.6109,-6.6294 73.2323,-13.2105 109.8431,-19.8785 3.9804,-0.7926 8.0688,-0.5108 12.1363,-0.5213 0.021,110.7502 0,221.5004 0.014,332.2403 0.3095,22.5275 -1.474,45.5279 4.4569,67.5292 3.5702,13.4998 11.7193,25.8806 23.3898,33.7094 2.6002,1.8306 5.392,3.3706 8.1799,4.9501 -0.069,1.7909 -0.08,3.5997 -0.059,5.4207 -52.9782,-0.0201 -105.9702,-0.0201 -158.9483,0.01 -0.052,-1.8201 -0.069,-3.6204 -0.052,-5.4198 12.4701,-6.6408 23.6401,-16.6507 29.1991,-29.88 5.0513,-11.3706 6.3201,-23.9395 6.8312,-36.2393 0.65,-14.3509 -0.1599,-28.7019 0,-43.0424 0.08,-80.9878 -0.1808,-161.9898 0.1599,-242.9677 -0.379,-12.7204 -0.6778,-26.0699 -6.6297,-37.6398 -5.6596,-11.3403 -17.0209,-18.3314 -28.5211,-22.6423 -0.038,-1.8808 -0.038,-3.7477 0,-5.6285 z m 878.0128,-10.398 c 7.6136,0.0592 15.262,-0.1216 22.9102,0.087 5.8056,0.3824 12.272,0.4519 17.0348,4.3316 5.2495,4.2795 6.0489,12.0079 4.2063,18.1508 -1.7033,5.1591 -7.1265,7.6587 -12.0979,8.5 3.6155,0.8204 7.1963,2.6768 9.2125,5.9307 4.4847,6.1673 1.808,14.1667 3.5808,21.1475 -3.2329,-0.1114 -6.4661,-0.1287 -9.6645,-0.1114 -1.0431,-5.1173 0.2781,-10.5196 -1.5298,-15.4981 -1.0778,-3.0104 -3.5807,-5.6214 -6.7096,-6.3201 -5.3884,-1.2793 -10.9508,-0.9318 -16.4089,-0.9386 -0.035,7.5892 -0.035,15.1679 0,22.7568 -3.5459,0.0105 -7.0572,0.0105 -10.5339,0.0105 0,-19.3501 0,-38.6966 0,-58.0467 z m 10.4993,7.2762 c 0,6.901 0.035,13.8016 0,20.7131 6.2229,-0.1531 12.7238,0.5595 18.7381,-1.4706 7.7176,-2.5901 7.7176,-15.971 -0.3478,-17.97 -5.9794,-1.7903 -12.2717,-1.182 -18.3903,-1.2725 z m -2922.1311,107.371 c 29.3624,-19.6279 64.5409,-29.0494 99.5315,-31.1213 27.4295,-1.6582 55.37,-0.0487 81.8711,7.6204 -11.7295,1.3315 -23.5913,1.9607 -35.1298,4.6202 -33.402,6.7306 -64.1897,23.9913 -88.6501,47.5305 -28.0415,26.8801 -48.3508,60.8003 -63.6718,96.2498 -14.3994,35.0708 -28.448,70.2805 -42.6702,105.4313 -4.0085,9.8696 -7.8988,19.7985 -10.9894,29.9996 -2.2804,7.7703 -4.0708,15.8695 -3.2782,24.0199 0.8274,7.7502 5.2078,14.8896 11.4378,19.5202 6.692,5.1605 14.8096,7.9796 22.9308,10.0191 -0.021,1.8309 -0.021,3.6802 0,5.5312 -64.9304,-0.0107 -129.8395,-0.0314 -194.7594,0.01 -0.021,-1.8998 -0.021,-3.7905 -0.01,-5.6699 16.9515,-7.5407 32.4391,-18.5201 44.5893,-32.5998 23.7619,-27.0995 35.9226,-61.5793 51.5806,-93.4691 18.2098,-36.8124 34.5285,-74.6713 56.0894,-109.7212 18.4706,-30.1098 41.2693,-58.4883 71.1289,-77.9706 z"
     style="fill:#f47b20;fill-rule:evenodd"
     id="path1" />
</svg>
